{"title":"Skeleton Lake-AC3-XviD-DVDRip 2012","uid":6644951,"size":1432334035,"categoryP":"video","categoryS":"movies","magnet":"?xt=urn:btih:76227504aaed0bc420d517bcedd7b8ac88afd735&amp;dn=Skeleton+Lake-AC3-XviD-DVDRip+2012&amp;tr=udp%3A%2F%2Ftracker.openbittorrent.com%3A80&amp;tr=udp%3A%2F%2Fopen.demonii.com%3A1337&amp;tr=udp%3A%2F%2Ftracker.coppersurfer.tk%3A6969&amp;tr=udp%3A%2F%2Fexodus.desync.com%3A6969","seeders":0,"leechers":0,"uploader":"FatFreddy31","files":-1,"time":1314909722,"description":"[img]http://img705.imageshack.us/img705/3341/71740.jpg[/img]\n\nAka  Battleground.\n &lt;a href=&quot;\nhttp://www.imdb.com/title/tt1754506/&quot; rel=&quot;nofollow&quot; target=&quot;_NEW&quot;&gt;\nhttp://www.imdb.com/title/tt1754506/&lt;/a&gt;\n &lt;a href=&quot;\nhttp://www.moviemeter.nl/film/71740&quot; rel=&quot;nofollow&quot; target=&quot;_NEW&quot;&gt;\nhttp://www.moviemeter.nl/film/71740&lt;/a&gt;\n\nSubs: Dutch.\n\nSource: Skeleton Lake 2012 R4 NTSC DVDR-TDP\n\nGeneral\nComplete name                    : Skeleton Lake-AC3-XviD-DVDRip 2012\\Skeleton Lake-AC3-XviD-DVDRip 2012.avi\nFormat                           : AVI\nFormat/Info                      : Audio Video Interleave\nFile size                        : 1.33 GiB\nDuration                         : 1h 25mn\nOverall bit rate                 : 2 236 Kbps\nWriting application              : VirtualDubMod 1.5.4.1 (build 2178/release)\nWriting library                  : VirtualDubMod build 2178/release\n\nVideo\nID                               : 0\nFormat                           : MPEG-4 Visual\nFormat profile                   : Simple@L3\nFormat settings, BVOP            : No\nFormat settings, QPel            : No\nFormat settings, GMC             : No warppoints\nFormat settings, Matrix          : Default (H.263)\nCodec ID                         : XVID\nCodec ID/Hint                    : XviD\nDuration                         : 1h 25mn\nBit rate                         : 1 778 Kbps\nWidth                            : 720 pixels\nHeight                           : 304 pixels\nDisplay aspect ratio             : 2.35:1\nFrame rate                       : 23.976 fps\nResolution                       : 8 bits\nColorimetry                      : 4:2:0\nScan type                        : Progressive\nBits/(Pixel*Frame)               : 0.339\nStream size                      : 1.06 GiB (80%)\nWriting library                  : XviD 1.1.2 (UTC 2006-11-01)\n\nAudio\nID                               : 1\nFormat                           : AC-3\nFormat/Info                      : Audio Coding 3\nCodec ID                         : 2000\nDuration                         : 1h 25mn\nBit rate mode                    : Constant\nBit rate                         : 448 Kbps\nChannel(s)                       : 6 channels\nChannel positions                : Front: L C R, Surround: L R, LFE\nSampling rate                    : 48.0 KHz\nStream size                      : 274 MiB (20%)\nAlignment                        : Split accross interleaves\nInterleave, duration             : 42 ms (1.00 video frame)\nInterleave, preload duration     : 500 ms\n\nEnjoy...\n\nThanks to Simply ReleaseS Toppers!\n\n[img]http://img28.imageshack.us/img28/3047/skeletonlakeac3xviddvdr.jpg[/img]","torrent":{"xt":"urn:btih:76227504aaed0bc420d517bcedd7b8ac88afd735","amp;dn":"Skeleton+Lake-AC3-XviD-DVDRip+2012","amp;tr":["udp%3A%2F%2Ftracker.openbittorrent.com%3A80","udp%3A%2F%2Fopen.demonii.com%3A1337","udp%3A%2F%2Ftracker.coppersurfer.tk%3A6969","udp%3A%2F%2Fexodus.desync.com%3A6969"],"infoHash":"76227504aaed0bc420d517bcedd7b8ac88afd735","infoHashBuffer":{"type":"Buffer","data":[118,34,117,4,170,237,11,196,32,213,23,188,237,215,184,172,136,175,215,53]},"announce":[],"urlList":[]}}